<svg xmlns="http://www.w3.org/2000/svg" viewBox="0 0 24 24" fill="currentColor" aria-hidden="true">
  <path d="M14 9.8l3.5-4.1c.3-.4.4-.6.3-.9-.1-.3-.5-.6-.9-.6-.2 0-.4.1-.6.2L12.2 8 14 9.8zM7.5 20c-.4 0-.8-.3-1-.6-.1-.4 0-.9.3-1.2l3.3-4 .2.2-3.3 4c-.2.2-.3.6-.2.9.1.3.4.4.7.4.2 0 .4-.1.5-.2l6.9-6.4c.3-.3.4-.6.5-1s-.1-.7-.4-1l-.1-.1-8.5-8.1c-.2-.2-.4-.3-.6-.4-.3 0-.6.2-.7.5-.1.2-.1.4.2.8l5 6-.2.2-5-6c-.3-.5-.4-.7-.3-1.1.2-.4.5-.6 1-.6.3.1.6.2.8.5l8.5 8.1.1.1c.3.3.5.8.4 1.2 0 .5-.2.9-.6 1.2l-6.8 6.3c-.1.2-.4.3-.7.3z"/>
  <path d="M18.9 20.2L12.1 12l-1.8-2.2-1.1 1c-.7.6-.7 1.7 0 2.3l8.7 8.4c.2.2.4.2.6.2.3 0 .6-.2.8-.5 0-.3-.1-.7-.4-1z"/>
</svg>
