<svg xmlns="http://www.w3.org/2000/svg" viewBox="0 0 24 24" fill="currentColor" aria-hidden="true">
  <path d="M12 2.2c2.7 0 5 .9 6.9 2.8 1.9 1.9 2.8 4.2 2.8 6.9s-.9 5-2.8 6.8c-2 1.9-4.3 2.9-7 2.9-2.6 0-4.9-1-6.9-2.9-1.8-1.7-2.8-4-2.8-6.7s1-5 2.9-6.9C7 3.2 9.3 2.2 12 2.2zM12 4c-2.2 0-4.1.8-5.6 2.3C4.8 8 4 9.9 4 12c0 2.2.8 4 2.4 5.6C8 19.2 9.8 20 12 20c2.2 0 4.1-.8 5.7-2.4 1.5-1.5 2.3-3.3 2.3-5.6 0-2.2-.8-4.1-2.3-5.7C16.1 4.8 14.2 4 12 4zm2.6 5.6v4h-1.1v4.7h-3v-4.7H9.4v-4c0-.2.1-.3.2-.4.1-.2.2-.2.4-.2h4c.2 0 .3.1.4.2.2.1.2.2.2.4zm-4-2.5c0-.9.5-1.4 1.4-1.4s1.4.5 1.4 1.4c0 .9-.5 1.4-1.4 1.4s-1.4-.5-1.4-1.4z"/>
</svg>
