<svg xmlns="http://www.w3.org/2000/svg" viewBox="0 0 24 24" fill="currentColor" aria-hidden="true">
  <path d="M12 2.2c2.7 0 5 .9 6.9 2.8 1.9 1.9 2.8 4.2 2.8 6.9s-.9 5-2.8 6.9c-2 1.9-4.3 2.9-7 2.9-2.6 0-4.9-1-6.9-2.9C3.2 17 2.2 14.7 2.2 12s1-5 2.9-6.9C7 3.2 9.3 2.2 12 2.2zM12 4c-2.2 0-4.1.8-5.6 2.4C4.8 8 4 9.9 4 12c0 2.2.8 4 2.4 5.6C8 19.2 9.8 20 12 20c2.2 0 4.1-.8 5.7-2.4 1.5-1.5 2.3-3.3 2.3-5.6 0-2.2-.8-4.1-2.3-5.6C16.1 4.8 14.2 4 12 4zm3.7 5.7v1.7H8.6V9.7h7.1zm0 3.1v1.7H8.6v-1.7h7.1z"/>
</svg>
