<svg xmlns="http://www.w3.org/2000/svg" viewBox="0 0 24 24" fill="currentColor" aria-hidden="true">
  <path d="M12 2.2c2.7 0 5 .9 6.9 2.8 1.9 1.9 2.8 4.2 2.8 6.9s-.9 5-2.8 6.8c-2 1.9-4.3 2.9-7 2.9-2.6 0-4.9-1-6.9-2.9-1.9-1.9-2.9-4.2-2.9-6.9s1-5 2.9-6.9c2-1.7 4.3-2.7 7-2.7zM4.4 9.4C4.2 10.2 4 11 4 12c0 2.2.8 4 2.4 5.6C8 19.2 9.8 20 12 20c2.2 0 4.1-.8 5.7-2.4.6-.5 1-1.1 1.3-1.7l-3.7-1.6c-.1.6-.4 1.1-.9 1.5-.5.4-1.1.6-1.8.7V18h-1.1v-1.5c-1.1 0-2.1-.4-3-1.2l1.3-1.4c.6.6 1.4.9 2.2.9.3 0 .6-.1.9-.2.2-.2.4-.4.4-.7 0-.2-.1-.4-.3-.6l-.9-.4-1.1-.6-1.5-.7-5.1-2.2zM12 4c-2.2 0-4.1.8-5.6 2.3-.4.4-.7.9-1.1 1.3L9 9.3c.2-.5.5-.9 1-1.2.5-.3 1-.5 1.6-.5V6.1h1.1v1.5c.9 0 1.7.3 2.4.9l-1.3 1.3c-.5-.4-1.1-.6-1.7-.6-.3 0-.6.1-.8.2-.2.1-.3.3-.3.6 0 .1 0 .2.1.2l1.2.6.9.4 1.6.7 5 2.2c.2-.7.2-1.4.2-2.1 0-2.2-.8-4.1-2.3-5.7C16.1 4.8 14.2 4 12 4z"/>
</svg>
