<svg xmlns="http://www.w3.org/2000/svg" viewBox="0 0 24 24" fill="currentColor" aria-hidden="true">
  <path d="M12 6.4c-3.2 0-4 3-4 5.6 0 2.6.8 5.6 4 5.6s4-3 4-5.6c0-2.6-.8-5.6-4-5.6zm0 2.1h.4c.2.2.3.5.1.9l-2.1 3.9c-.1-.5-.1-1-.1-1.4 0-1 0-3.4 1.7-3.4zm1.6 1.8c.1.6.1 1.2.1 1.7 0 1.1-.1 3.5-1.7 3.5h-.4-.1-.1c-.4-.2-.6-.4-.3-.9l2.5-4.3z"/>
  <path d="M12 2.2c-2.7 0-5 .9-6.8 2.8-1 1-1.7 2.1-2.2 3.3-.5 1.2-.8 2.4-.8 3.7 0 1.3.2 2.5.7 3.7.5 1.2 1.2 2.2 2.1 3.2.9.9 2 1.6 3.2 2.1 1.2.5 2.4.7 3.7.7 1.3 0 2.5-.3 3.7-.8 1.2-.5 2.3-1.2 3.2-2.2.9-.9 1.6-1.9 2.1-3.1.5-1.2.7-2.4.7-3.8 0-1.3-.2-2.6-.7-3.7-.3-1-1-2.1-1.9-3-2-1.9-4.3-2.9-7-2.9zM12 4c2.2 0 4.1.8 5.7 2.3.7.8 1.3 1.7 1.7 2.6.4 1 .6 2 .6 3.1 0 2.2-.8 4.1-2.3 5.6-.8.8-1.7 1.4-2.7 1.8-1 .4-2 .6-3 .6-1.1 0-2.1-.2-3-.6-1-.4-1.8-1-2.6-1.7C5.6 16.9 5 16 4.6 15c-.4-1-.6-2-.6-3 0-1.1.2-2.1.6-3 .4-1 1-1.9 1.8-2.6C7.9 4.8 9.8 4 12 4z"/>
</svg>
