<svg xmlns="http://www.w3.org/2000/svg" viewBox="0 0 24 24" fill="currentColor" aria-hidden="true">
  <path d="M12 2.2c2.7 0 5 1 7 2.9.9.9 1.6 2 2.1 3.1.5 1.2.7 2.4.7 3.8 0 1.3-.2 2.6-.7 3.8-.5 1.2-1.2 2.2-2.1 3.1-1 .9-2 1.7-3.2 2.2-1.2.5-2.5.7-3.7.7s-2.6-.3-3.8-.8c-1.2-.5-2.2-1.2-3.2-2.1s-1.6-2-2.1-3.2-.8-2.4-.8-3.7c0-1.3.2-2.5.7-3.7S4.2 6 5.1 5.1C7 3.2 9.3 2.2 12 2.2zM12 4c-2.2 0-4.1.8-5.6 2.3C5.6 7.1 5 8 4.6 9c-.4 1-.6 2-.6 3s.2 2.1.6 3c.4 1 1 1.8 1.8 2.6S8 19 9 19.4c1 .4 2 .6 3 .6s2.1-.2 3-.6c1-.4 1.9-1 2.7-1.8 1.5-1.5 2.3-3.3 2.3-5.6 0-1.1-.2-2.1-.6-3.1-.4-1-1-1.8-1.7-2.6C16.1 4.8 14.2 4 12 4zm-.1 6.4l-1.3.7c-.1-.3-.3-.5-.5-.6-.2-.1-.4-.2-.6-.2-.9 0-1.3.6-1.3 1.7 0 .5.1.9.3 1.3.2.3.5.5 1 .5.6 0 1-.3 1.2-.8l1.2.6c-.3.5-.6.9-1.1 1.1-.5.3-1 .4-1.5.4-.9 0-1.6-.3-2.1-.8-.5-.6-.8-1.3-.8-2.3 0-.9.3-1.7.8-2.2.6-.6 1.3-.8 2.1-.8 1.2 0 2.1.4 2.6 1.4zm5.6 0l-1.3.7c-.1-.3-.3-.5-.5-.6-.2-.1-.4-.2-.6-.2-.9 0-1.3.6-1.3 1.7 0 .5.1.9.3 1.3.2.3.5.5 1 .5.6 0 1-.3 1.2-.8l1.2.6c-.3.5-.6.9-1.1 1.1-.4.2-.9.3-1.4.3-.9 0-1.6-.3-2.1-.8s-.8-1.3-.8-2.2c0-.9.3-1.7.8-2.2.5-.5 1.2-.8 2-.8 1.2 0 2.1.4 2.6 1.4z"/>
</svg>
