<svg xmlns="http://www.w3.org/2000/svg" viewBox="0 0 24 24" fill="currentColor" aria-hidden="true">
  <path d="M12 2.5c-5.4 0-9.8 4.4-9.8 9.7 0 4.3 2.8 8 6.7 9.2.5.1.7-.2.7-.5v-1.8c-2.4.5-3.1-.6-3.3-1.1-.1-.3-.6-1.1-1-1.4-.3-.2-.8-.6 0-.6s1.3.7 1.5 1c.9 1.5 2.3 1.1 2.8.8.1-.6.3-1.1.6-1.3-2.2-.2-4.4-1.1-4.4-4.8 0-1.1.4-1.9 1-2.6-.1-.2-.4-1.2.1-2.6 0 0 .8-.3 2.7 1 .8-.2 1.6-.3 2.4-.3.8 0 1.7.1 2.4.3 1.9-1.3 2.7-1 2.7-1 .5 1.3.2 2.3.1 2.6.6.7 1 1.5 1 2.6 0 3.7-2.3 4.6-4.4 4.8.4.3.7.9.7 1.8V21c0 .3.2.6.7.5 3.9-1.3 6.6-4.9 6.6-9.2 0-5.4-4.4-9.8-9.8-9.8z"/>
</svg>
