<svg xmlns="http://www.w3.org/2000/svg" viewBox="0 0 24 24" fill="currentColor" aria-hidden="true">
  <path d="M2.9 12.5c0 .7-.1 1-.2 1.1-.2.1-.4.2-.6.2l.1.4c.3 0 .7-.1.9-.3.3-.3.4-.8.4-1.2V10h-.6v2.5zM7 12.2v.8h-.4v-.5c-.2.4-.6.6-1 .6-.5 0-1.1-.3-1.1-1.3V10H5v1.7c0 .6.2 1 .7 1 .4 0 .8-.3.8-.8V10H7v2.2zM8.1 11v-1h.5v.5c.2-.4.6-.6 1.1-.6.7 0 1.3.6 1.3 1.5 0 1.1-.7 1.6-1.4 1.6-.4 0-.7-.2-.9-.5v1.7h-.6V11zm.5.8v.2c0 .2.4.6.8.6.6 0 .9-.5.9-1.2 0-.6-.3-1.1-.9-1.1-.5 0-.8.4-.8.9v.6zM11.9 10l.7 1.8.2.6.2-.6.6-1.8h.6l-.8 2.2c-.4 1-.7 1.6-1 1.9-.2.2-.4.3-.7.4l-.1-.5c.2-.1.3-.1.5-.3s.4-.4.5-.6v-.2L11.3 10h.6zM15.7 9.1v.9h.8v.4h-.8V12c0 .4.1.6.4.6h.3v.4c-.2.1-.3.1-.5.1s-.5-.1-.6-.2c-.2-.2-.2-.5-.2-.8v-1.7h-.5V10h.5v-.7l.6-.2zM17.5 11.6c0 .5.4 1 .9 1h.2c.3 0 .6 0 .8-.2l.1.4c-.3.1-.7.2-1 .2-.8.1-1.4-.5-1.5-1.3v-.2c0-.9.5-1.6 1.4-1.6 1 0 1.2.9 1.2 1.4v.3h-2.1zm1.6-.4c.1-.4-.2-.8-.7-.9h-.1c-.5 0-.8.4-.8.9h1.6zM20.4 10.9V10h.5v.6c.1-.4.4-.6.8-.7h.2v.5h-.2c-.4 0-.7.3-.7.7V13h-.5l-.1-2.1zM20.2 1.7c0 .8-.5 1.4-1.3 1.5-.8 0-1.4-.5-1.5-1.3 0-.8.5-1.4 1.3-1.5.8-.1 1.5.5 1.5 1.3zM12 17.9c-3.7 0-7-1.3-8.7-3.3 1.8 4.8 7.1 7.3 11.9 5.5 2.5-.9 4.5-2.9 5.5-5.5-1.7 2-4.9 3.3-8.7 3.3zM12 5.1c3.7 0 7 1.3 8.7 3.3-1.8-4.8-7.1-7.3-11.9-5.5-2.5.9-4.5 2.9-5.5 5.5 1.7-2 5-3.3 8.7-3.3zM6.9 21.8c.1 1-.7 1.8-1.7 1.9S3.4 23 3.3 22c0-1 .7-1.8 1.7-1.9 1-.1 1.8.7 1.9 1.7zM3.7 4.6c-.6 0-1-.4-1-1s.4-1 1-1 1 .4 1 1c0 .5-.4 1-1 1z"/>
</svg>
