<svg xmlns="http://www.w3.org/2000/svg" viewBox="0 0 24 24" fill="currentColor" aria-hidden="true">
  <path d="M11.3 20.5c0-1.4-.8-2.1-2.4-2.1h-2c-1.2 0-2.2-.3-3-.9-.7-.6-1.3-1.5-1.6-2.6l1.1-.4c.4 1.3 1.5 2.1 3.3 2.1h2.2c1.5 0 2.6.6 3.1 1.8.5-1.2 1.6-1.8 3.1-1.8h2c1.9 0 3-.7 3.5-2.1l1.1.4c-.3 1.2-.9 2.1-1.6 2.6-.7.6-1.7.9-3 .9H15c-1.6 0-2.4.7-2.4 2.1M7.1 13.4c-.5 0-1-.1-1.5-.3-.4-.2-.8-.6-1.1-1-.3-.5-.4-1.1-.4-1.6h1.3c0 .7.2 1.1.4 1.4.3.3.8.5 1.2.5.3 0 .6-.1.9-.2.2-.2.4-.4.5-.7.1-.3.2-.6.2-1v-6l-1.2-.1v-.9h3.7v.8l-1.1.2v5.9c0 .5-.1 1-.3 1.5-.2.4-.6.8-1 1-.5.4-1 .5-1.6.5zm5-.2v-.8l1.1-.2V4.5l-1.1-.2v-.8h4.2c1 0 1.8.2 2.4.7.6.4.9 1.1.9 2 0 .4-.1.8-.4 1.2-.3.3-.7.6-1.1.8.4.1.7.2 1 .5.3.2.5.5.7.9.2.3.2.7.2 1.1 0 .9-.3 1.6-.9 2s-1.4.7-2.4.7l-4.6-.2zm2.4-1h2.2c.5 0 1-.1 1.4-.4.3-.3.5-.8.5-1.3 0-.3-.1-.7-.2-1-.1-.3-.3-.5-.6-.6-.3-.2-.6-.2-1-.2h-2.4l.1 3.5zm0-4.6h2.1c.4 0 .8-.1 1.1-.4.3-.3.5-.7.4-1.1 0-.4-.2-.9-.5-1.2-.4-.3-.9-.4-1.4-.4h-1.8l.1 3.1z"/>
</svg>
