<svg xmlns="http://www.w3.org/2000/svg" viewBox="0 0 24 24" fill="currentColor" aria-hidden="true">
  <path d="M20.2 1.7c0 .8-.5 1.4-1.3 1.5-.8 0-1.4-.5-1.5-1.3 0-.8.5-1.4 1.3-1.5.8-.1 1.5.5 1.5 1.3zM12 17.9c-3.7 0-7-1.3-8.7-3.3 1.8 4.8 7.1 7.3 11.9 5.5 2.5-.9 4.5-2.9 5.5-5.5-1.7 2-4.9 3.3-8.7 3.3zM12 5.1c3.7 0 7 1.3 8.7 3.3-1.8-4.8-7.1-7.3-11.9-5.5-2.5.9-4.5 2.9-5.5 5.5 1.7-2 5-3.3 8.7-3.3zM6.9 21.8c.1 1-.7 1.8-1.7 1.9-1 .1-1.8-.7-1.9-1.7 0-1 .7-1.8 1.7-1.9 1-.1 1.8.7 1.9 1.7zM3.7 4.6c-.6 0-1-.4-1-1s.4-1 1-1 1 .4 1 1c0 .5-.4 1-1 1z"/>
</svg>
