<svg xmlns="http://www.w3.org/2000/svg" viewBox="0 0 24 24" fill="currentColor" aria-hidden="true">
  <path d="M6.8 8.5H2.9c-.2 0-.3.2-.3.3v12.6c0 .2.2.3.3.3h3.9c.2 0 .3-.2.3-.3V8.8c0-.2-.1-.3-.3-.3zm-2-6.3c-1.4 0-2.6 1.2-2.6 2.6s1.2 2.6 2.6 2.6 2.6-1.2 2.6-2.6-1.2-2.6-2.6-2.6zm11.9 6c-1.6 0-2.7.7-3.4 1.4v-.8c0-.2-.2-.3-.3-.3H9.2c-.2 0-.3.2-.3.3v12.6c0 .2.2.3.3.3h3.9c.2 0 .3-.2.3-.3v-6.3c0-2.1.6-2.9 2-2.9 1.6 0 1.7 1.3 1.7 3v6.1c0 .2.2.3.3.3h3.9c.2 0 .3-.2.3-.3v-6.9c.1-3.1-.5-6.2-4.9-6.2z"/>
</svg>
