<svg xmlns="http://www.w3.org/2000/svg" viewBox="0 0 24 24" fill="currentColor" aria-hidden="true">
  <path d="M21.1 8.7c0-4.2-2.8-5.5-2.8-5.5-1.4-.6-3.8-.9-6.3-.9s-4.9.3-6.3.9c0 0-2.8 1.2-2.8 5.5v3.4c.1 4.1.8 8.2 4.6 9.2 1.8.5 3.3.6 4.5.5 2.2-.1 3.5-.8 3.5-.8l-.1-1.6s-1.6.5-3.4.4c-1.8-.1-3.6-.2-3.9-2.3v-.6s1.7.4 3.9.5c1.3.1 2.6-.1 3.9-.2 2.4-.3 4.6-1.8 4.8-3.2.4-2.2.4-5.3.4-5.3zm-3.3 5.4h-2v-5c0-1-.4-1.6-1.3-1.6-1 0-1.5.6-1.5 1.9v2.7h-2V9.4c0-1.2-.5-1.9-1.5-1.9-.9 0-1.3.5-1.3 1.6v5h-2V9c0-1 .3-1.9.8-2.5.6-.6 1.3-.9 2.2-.9 1 0 1.8.4 2.3 1.2l.5.8.5-.8c.5-.8 1.3-1.2 2.4-1.2.9 0 1.6.3 2.2.9.5.6.8 1.4.8 2.5v5.1z"/>
</svg>
