<svg xmlns="http://www.w3.org/2000/svg" viewBox="0 0 24 24" fill="currentColor" aria-hidden="true">
  <path d="M17.1 12.6h-2V7.5c0-1.7-1.4-3.1-3-3.1-.8 0-1.6.3-2.2.9-.6.5-.9 1.3-.9 2.2v.7H7v-.7c0-1.4.5-2.7 1.5-3.7s2.2-1.5 3.6-1.5 2.6.5 3.6 1.5 1.5 2.3 1.5 3.7v5.1z"/>
  <path d="M12 21.8c-.8 0-1.6-.2-2.3-.5-.7-.3-1.4-.8-1.9-1.3-.6-.6-1-1.2-1.3-2-.3-.8-.5-1.6-.5-2.4s.2-1.6.5-2.4c.3-.7.7-1.4 1.3-2s1.2-1 1.9-1.3c.7-.3 1.5-.5 2.3-.5.8 0 1.6.2 2.3.5.7.3 1.4.8 1.9 1.3.6.6 1 1.2 1.3 2 .3.8.5 1.6.5 2.4s-.2 1.6-.5 2.4c-.3.7-.7 1.4-1.3 2-.6.6-1.2 1-1.9 1.3-.7.3-1.5.5-2.3.5zm0-10.3c-2.2 0-4 1.8-4 4.1s1.8 4.1 4 4.1 4-1.8 4-4.1-1.8-4.1-4-4.1z"/>
  <circle cx="12" cy="15.6" r="1.7"/>
</svg>
