<svg xmlns="http://www.w3.org/2000/svg" viewBox="0 0 24 24" fill="currentColor" aria-hidden="true">
  <path d="M10 4.2L8.3 6.8 6.6 4.2H10zM17.1 4.2l-1.7 2.6-1.7-2.6h3.4zM6.6 19.8l1.7-2.6 1.7 2.6H6.6zM13.7 19.8l1.7-2.6 1.7 2.6h-3.4zM20.8 12.5c.6-.1 1.1-.4 1.4-.8.3-.4.5-.9.5-1.5 0-.5-.1-.9-.3-1.2-.2-.3-.4-.6-.7-.8-.3-.2-.6-.3-1-.4-.4-.1-.8-.1-1.2-.1h-3.3v2.6c0-.1-.1-.2-.1-.2-.2-.6-.6-1-1-1.4-.4-.4-.9-.7-1.5-.9-.6-.2-1.2-.3-1.9-.3s-1.3.1-1.9.3c-.5.1-1 .4-1.4.8-.3.4-.6.8-.9 1.3 0-.3-.1-.6-.2-.9-.2-.4-.4-.6-.7-.8-.3-.2-.6-.3-1-.4s-.8-.2-1.3-.2H1v8.5h1.9v-3.4h.9l1.8 3.4h2.3l-2.2-3.6c.6-.1 1.1-.4 1.4-.8v-.1.2c0 .7.1 1.3.3 1.8.2.6.6 1 1 1.4.4.4.9.7 1.5.9.6.2 1.2.3 1.9.3s1.3-.1 1.9-.3c.6-.2 1.1-.5 1.5-.9.4-.4.7-.9 1-1.4 0-.1.1-.2.1-.2V16H18v-3.4h.9l1.8 3.4H23l-2.2-3.5zM5.4 10.7c-.1.2-.2.3-.3.3-.2.1-.3.1-.5.1H2.9V9.2h1.7c.2 0 .3.1.5.1.1.1.3.2.3.3.1.1.1.3.1.5.1.3 0 .5-.1.6zm8.8 2.3c-.1.3-.3.6-.5.9-.2.2-.5.4-.8.6-.3.1-.7.2-1.1.2-.4 0-.8-.1-1.1-.2-.3-.1-.6-.3-.8-.6-.2-.2-.4-.5-.5-.9-.1-.3-.2-.7-.2-1.1 0-.4.1-.8.2-1.1s.3-.6.5-.9c.2-.2.5-.4.8-.6.3-.1.7-.2 1.1-.2.4 0 .8.1 1.1.2.3.1.6.3.8.6.2.2.4.5.5.9.1.3.2.7.2 1.1 0 .4 0 .7-.2 1.1zm6.4-2.3c-.1.1-.2.2-.4.3-.2.1-.3.1-.5.1H18V9.2h1.7c.2 0 .3.1.5.1.1.1.3.2.3.3.1.1.1.3.1.5.1.3.1.5 0 .6z"/>
</svg>
