<svg xmlns="http://www.w3.org/2000/svg" viewBox="0 0 24 24" fill="currentColor" aria-hidden="true">
  <path d="M11.9 21.6c-5.3 0-9.7-4.3-9.7-9.7 0-5.3 4.3-9.7 9.7-9.7h.1c2.6 0 5 1 6.8 2.8 1.8 1.8 2.8 4.2 2.8 6.8 0 2.6-1 5-2.8 6.9-1.8 1.9-4.2 2.9-6.9 2.9.1 0 .1 0 0 0zm0-18.2c-4.7 0-8.5 3.9-8.4 8.5 0 4.7 3.8 8.4 8.5 8.4 2.3 0 4.4-.9 6-2.5 1.6-1.6 2.5-3.7 2.5-6s-.9-4.4-2.5-6c-1.6-1.5-3.8-2.4-6.1-2.4zM11 21.2c-.5-.4-1-.9-1.4-1.4-.8-1-1.5-2.1-2-3.2-.8.3-1.7.8-2.4 1.3l-.5-.7c.8-.6 1.7-1.1 2.6-1.4-.4-1.1-.6-2.2-.6-3.4H2.9v-.8h3.8v-.5c.1-1.1.3-2.1.6-3-.9-.4-1.8-.9-2.6-1.5l.5-.6c.8.6 1.6 1 2.5 1.3C8.3 5.6 9.5 4 11 2.7l.5.6C10.1 4.5 9.1 6 8.4 7.6c1 .3 2.1.5 3.1.5V2.8h.8v5.3c1.1 0 2.1-.2 3.1-.5-.4-1-1-2-1.8-2.9-.4-.5-.9-.9-1.3-1.3l.5-.6c.5.4 1 .9 1.4 1.4.8 1 1.5 2 1.9 3.2 1-.4 1.9-.9 2.6-1.4l.5.7c-.8.6-1.7 1.1-2.7 1.4.4 1.1.6 2.2.6 3.4H21v.8h-3.8v.6c-.1.9-.3 1.9-.6 2.8.9.4 1.8.8 2.6 1.4l-.5.7c-.8-.5-1.6-1-2.4-1.3-.7 1.8-1.9 3.4-3.4 4.7l-.5-.6c1.4-1.2 2.5-2.7 3.1-4.3-1-.3-2.1-.5-3.2-.6V21h-.8v-5.3c-1.1 0-2.1.2-3.2.6.4 1.1 1 2.1 1.8 3 .4.5.9.9 1.3 1.3l-.4.6zm-3.5-8.9c0 1.1.2 2.1.5 3.1 1.1-.4 2.3-.6 3.4-.6v-2.5H7.5zm4.9 2.5c1.2 0 2.3.2 3.4.6.3-.8.4-1.7.5-2.5v-.6h-4v2.5zm0-3.3h4c0-1.1-.2-2.1-.6-3.1-1.1.4-2.3.6-3.4.6v2.5zm-4.9 0h4V9c-1.2 0-2.3-.2-3.4-.6-.3.8-.5 1.7-.5 2.6 0 .2 0 .3-.1.5z"/>
</svg>
