<?xml version="1.0" encoding="utf-8"?>
<!-- Generator: Adobe Illustrator 26.0.3, SVG Export Plug-In . SVG Version: 6.00 Build 0)  -->
<svg version="1.1" id="Layer_1" xmlns="http://www.w3.org/2000/svg" xmlns:xlink="http://www.w3.org/1999/xlink" x="0px" y="0px"
	 viewBox="0 0 24 24" style="enable-background:new 0 0 24 24;" xml:space="preserve">
<path d="M14,9.8l3.5-4.1c0.3-0.4,0.4-0.6,0.3-0.9c-0.1-0.3-0.5-0.6-0.9-0.6l0,0c-0.2,0-0.4,0.1-0.6,0.2l-4.1,3.6L14,9.8z"/>
<path d="M7.5,20c-0.4,0-0.8-0.3-1-0.6c-0.1-0.4,0-0.9,0.3-1.2l3.3-4l0.2,0.2l-3.3,4c-0.2,0.2-0.3,0.6-0.2,0.9
	c0.1,0.3,0.4,0.4,0.7,0.4c0,0,0,0,0,0c0.2,0,0.4-0.1,0.5-0.2l6.9-6.4c0.3-0.3,0.4-0.6,0.5-1s-0.1-0.7-0.4-1c0,0-0.1-0.1-0.1-0.1
	L6.4,2.9C6.2,2.7,6,2.6,5.8,2.5c0,0,0,0,0,0C5.5,2.5,5.2,2.7,5.1,3C5,3.2,5,3.4,5.3,3.8l5,6L10.1,10l-5-6C4.8,3.5,4.7,3.3,4.8,2.9
	c0.2-0.4,0.5-0.6,1-0.6c0.3,0.1,0.6,0.2,0.8,0.5l8.5,8.1c0,0,0.1,0.1,0.1,0.1c0.3,0.3,0.5,0.8,0.4,1.2c0,0.5-0.2,0.9-0.6,1.2
	l-6.8,6.3C8.1,19.9,7.8,20,7.5,20C7.5,20,7.5,20,7.5,20z"/>
<path d="M18.9,20.2L12.1,12l0,0l-1.8-2.2l-1.1,1c-0.7,0.6-0.7,1.7,0,2.3c0,0,0,0,0,0l8.7,8.4c0.2,0.2,0.4,0.2,0.6,0.2
	c0.3,0,0.6-0.2,0.8-0.5C19.3,20.9,19.2,20.5,18.9,20.2z"/>
</svg>
