<?xml version="1.0" encoding="utf-8"?>
<!-- Generator: Adobe Illustrator 26.0.3, SVG Export Plug-In . SVG Version: 6.00 Build 0)  -->
<svg version="1.1" id="Layer_1" xmlns="http://www.w3.org/2000/svg" xmlns:xlink="http://www.w3.org/1999/xlink" x="0px" y="0px"
	 viewBox="0 0 24 24" style="enable-background:new 0 0 24 24;" xml:space="preserve">
<path d="M12,2.2c2.7,0,5,0.9,6.9,2.8c1.9,1.9,2.8,4.2,2.8,6.9c0,2.7-0.9,5-2.8,6.8c-2,1.9-4.3,2.9-7,2.9c-2.6,0-4.9-1-6.9-2.9
	C3.2,17,2.2,14.7,2.2,12c0-2.7,1-5,2.9-6.9C7,3.2,9.3,2.2,12,2.2z M12,4C9.8,4,7.9,4.8,6.4,6.3C4.8,8,4,9.9,4,12
	c0,2.2,0.8,4,2.4,5.6C8,19.2,9.8,20,12,20c2.2,0,4.1-0.8,5.7-2.4c1.5-1.5,2.3-3.3,2.3-5.6c0-2.2-0.8-4.1-2.3-5.7
	C16.1,4.8,14.2,4,12,4z M14.6,9.6v4h-1.1v4.7h-3v-4.7H9.4v-4c0-0.2,0.1-0.3,0.2-0.4C9.7,9,9.8,9,10,9h4c0.2,0,0.3,0.1,0.4,0.2
	C14.6,9.3,14.6,9.4,14.6,9.6z M10.6,7.1c0-0.9,0.5-1.4,1.4-1.4s1.4,0.5,1.4,1.4c0,0.9-0.5,1.4-1.4,1.4S10.6,8,10.6,7.1z"/>
</svg>
