<?xml version="1.0" encoding="utf-8"?>
<!-- Generator: Adobe Illustrator 26.0.3, SVG Export Plug-In . SVG Version: 6.00 Build 0)  -->
<svg version="1.1" id="Layer_1" xmlns="http://www.w3.org/2000/svg" xmlns:xlink="http://www.w3.org/1999/xlink" x="0px" y="0px"
	 viewBox="0 0 24 24" style="enable-background:new 0 0 24 24;" xml:space="preserve">
<path d="M12,2.2c2.7,0,5,0.9,6.9,2.8c1.9,1.9,2.8,4.2,2.8,6.9c0,2.7-0.9,5-2.8,6.8c-2,1.9-4.3,2.9-7,2.9c-2.6,0-4.9-1-6.9-2.9
	c-1.9-1.9-2.9-4.2-2.9-6.9c0-2.7,1-5,2.9-6.9C7,3.2,9.3,2.2,12,2.2z M4.4,9.4C4.2,10.2,4,11,4,12c0,2.2,0.8,4,2.4,5.6
	C8,19.2,9.8,20,12,20c2.2,0,4.1-0.8,5.7-2.4c0.6-0.5,1-1.1,1.3-1.7l-3.7-1.6c-0.1,0.6-0.4,1.1-0.9,1.5c-0.5,0.4-1.1,0.6-1.8,0.7v1.5
	h-1.1v-1.5c-1.1,0-2.1-0.4-3-1.2l1.3-1.4c0.6,0.6,1.4,0.9,2.2,0.9c0.3,0,0.6-0.1,0.9-0.2c0.2-0.2,0.4-0.4,0.4-0.7
	c0-0.2-0.1-0.4-0.3-0.6l-0.9-0.4L11,12.3l-1.5-0.7L4.4,9.4z M12,4C9.8,4,7.9,4.8,6.4,6.3C6,6.7,5.7,7.2,5.3,7.6L9,9.3
	C9.2,8.8,9.5,8.4,10,8.1c0.5-0.3,1-0.5,1.6-0.5V6.1h1.1v1.5c0.9,0,1.7,0.3,2.4,0.9l-1.3,1.3c-0.5-0.4-1.1-0.6-1.7-0.6
	c-0.3,0-0.6,0.1-0.8,0.2C11.1,9.5,11,9.7,11,10c0,0.1,0,0.2,0.1,0.2l1.2,0.6l0.9,0.4l1.6,0.7l5,2.2c0.2-0.7,0.2-1.4,0.2-2.1
	c0-2.2-0.8-4.1-2.3-5.7C16.1,4.8,14.2,4,12,4z"/>
</svg>
