<?xml version="1.0" encoding="utf-8"?>
<!-- Generator: Adobe Illustrator 26.0.3, SVG Export Plug-In . SVG Version: 6.00 Build 0)  -->
<svg version="1.1" id="Layer_1" xmlns="http://www.w3.org/2000/svg" xmlns:xlink="http://www.w3.org/1999/xlink" x="0px" y="0px"
	 viewBox="0 0 24 24" style="enable-background:new 0 0 24 24;" xml:space="preserve">
<path id="text2809_1_" d="M12,6.4c-3.2,0-4,3-4,5.6c0,2.6,0.8,5.6,4,5.6c3.2,0,4-3,4-5.6C16,9.4,15.2,6.4,12,6.4z M12,8.5
	c0.1,0,0.2,0,0.4,0c0.2,0.2,0.3,0.5,0.1,0.9l-2.1,3.9c-0.1-0.5-0.1-1-0.1-1.4C10.3,10.9,10.3,8.5,12,8.5z M13.6,10.3
	c0.1,0.6,0.1,1.2,0.1,1.7c0,1.1-0.1,3.5-1.7,3.5c-0.1,0-0.3,0-0.4,0c0,0,0,0-0.1,0c0,0-0.1,0-0.1,0c-0.4-0.2-0.6-0.4-0.3-0.9
	L13.6,10.3z"/>
<path id="path2815_1_" d="M12,2.2c-2.7,0-5,0.9-6.8,2.8C4.2,6,3.5,7.1,3,8.3C2.5,9.5,2.2,10.7,2.2,12c0,1.3,0.2,2.5,0.7,3.7
	c0.5,1.2,1.2,2.2,2.1,3.2c0.9,0.9,2,1.6,3.2,2.1c1.2,0.5,2.4,0.7,3.7,0.7c1.3,0,2.5-0.3,3.7-0.8c1.2-0.5,2.3-1.2,3.2-2.2
	c0.9-0.9,1.6-1.9,2.1-3.1c0.5-1.2,0.7-2.4,0.7-3.8c0-1.3-0.2-2.6-0.7-3.7C20.6,7.1,19.9,6,19,5.1C17,3.2,14.7,2.2,12,2.2z M12,4
	c2.2,0,4.1,0.8,5.7,2.3C18.4,7.1,19,8,19.4,8.9c0.4,1,0.6,2,0.6,3.1c0,2.2-0.8,4.1-2.3,5.6c-0.8,0.8-1.7,1.4-2.7,1.8
	c-1,0.4-2,0.6-3,0.6c-1.1,0-2.1-0.2-3-0.6c-1-0.4-1.8-1-2.6-1.7C5.6,16.9,5,16,4.6,15C4.2,14,4,13,4,12c0-1.1,0.2-2.1,0.6-3
	c0.4-1,1-1.9,1.8-2.6C7.9,4.8,9.8,4,12,4z"/>
</svg>
