<?xml version="1.0" encoding="utf-8"?>
<!-- Generator: Adobe Illustrator 26.0.3, SVG Export Plug-In . SVG Version: 6.00 Build 0)  -->
<svg version="1.1" id="Layer_1" xmlns="http://www.w3.org/2000/svg" xmlns:xlink="http://www.w3.org/1999/xlink" x="0px" y="0px"
	 viewBox="0 0 24 24" style="enable-background:new 0 0 24 24;" xml:space="preserve">
<path d="M12,2.2c2.7,0,5,1,7,2.9c0.9,0.9,1.6,2,2.1,3.1c0.5,1.2,0.7,2.4,0.7,3.8c0,1.3-0.2,2.6-0.7,3.8c-0.5,1.2-1.2,2.2-2.1,3.1
	c-1,0.9-2,1.7-3.2,2.2c-1.2,0.5-2.5,0.7-3.7,0.7S9.5,21.5,8.3,21c-1.2-0.5-2.2-1.2-3.2-2.1s-1.6-2-2.1-3.2S2.2,13.3,2.2,12
	c0-1.3,0.2-2.5,0.7-3.7S4.2,6,5.1,5.1C7,3.2,9.3,2.2,12,2.2z M12,4C9.8,4,7.9,4.8,6.4,6.3C5.6,7.1,5,8,4.6,9c-0.4,1-0.6,2-0.6,3
	c0,1,0.2,2.1,0.6,3c0.4,1,1,1.8,1.8,2.6C7.2,18.4,8,19,9,19.4c1,0.4,2,0.6,3,0.6c1,0,2.1-0.2,3-0.6c1-0.4,1.9-1,2.7-1.8
	c1.5-1.5,2.3-3.3,2.3-5.6c0-1.1-0.2-2.1-0.6-3.1c-0.4-1-1-1.8-1.7-2.6C16.1,4.8,14.2,4,12,4z M11.9,10.4l-1.3,0.7
	c-0.1-0.3-0.3-0.5-0.5-0.6c-0.2-0.1-0.4-0.2-0.6-0.2c-0.9,0-1.3,0.6-1.3,1.7c0,0.5,0.1,0.9,0.3,1.3c0.2,0.3,0.5,0.5,1,0.5
	c0.6,0,1-0.3,1.2-0.8l1.2,0.6c-0.3,0.5-0.6,0.9-1.1,1.1c-0.5,0.3-1,0.4-1.5,0.4c-0.9,0-1.6-0.3-2.1-0.8C6.7,13.7,6.4,13,6.4,12
	c0-0.9,0.3-1.7,0.8-2.2C7.8,9.2,8.5,9,9.3,9C10.5,9,11.4,9.4,11.9,10.4z M17.5,10.4l-1.3,0.7c-0.1-0.3-0.3-0.5-0.5-0.6
	c-0.2-0.1-0.4-0.2-0.6-0.2c-0.9,0-1.3,0.6-1.3,1.7c0,0.5,0.1,0.9,0.3,1.3c0.2,0.3,0.5,0.5,1,0.5c0.6,0,1-0.3,1.2-0.8l1.2,0.6
	c-0.3,0.5-0.6,0.9-1.1,1.1C16,14.9,15.5,15,15,15c-0.9,0-1.6-0.3-2.1-0.8c-0.5-0.5-0.8-1.3-0.8-2.2c0-0.9,0.3-1.7,0.8-2.2
	c0.5-0.5,1.2-0.8,2-0.8C16.1,9,17,9.4,17.5,10.4z"/>
</svg>
