<?xml version="1.0" encoding="utf-8"?>
<!-- Generator: Adobe Illustrator 26.0.3, SVG Export Plug-In . SVG Version: 6.00 Build 0)  -->
<svg version="1.1" id="Layer_1" xmlns="http://www.w3.org/2000/svg" xmlns:xlink="http://www.w3.org/1999/xlink" x="0px" y="0px"
	 viewBox="0 0 24 24" style="enable-background:new 0 0 24 24;" xml:space="preserve">
<path d="M21.8,17.3c0,2.5-1.9,4.4-4.4,4.4c-2.4,0-4.4-1.9-4.4-4.4s1.9-4.4,4.4-4.4l0,0C19.7,12.9,21.8,15,21.8,17.3z M2.2,12.9H11
	v8.8C6.2,21.7,2.2,17.8,2.2,12.9z M4.9,4.8C6.5,3.2,8.8,2.2,11,2.2V11H2.2C2.2,8.7,3.2,6.5,4.9,4.8z M19.1,8.4
	C17.5,10,15.2,11,13,11V2.2h8.8C21.8,4.5,20.8,6.8,19.1,8.4z"/>
</svg>
