<?xml version="1.0" encoding="utf-8"?>
<!-- Generator: Adobe Illustrator 27.5.0, SVG Export Plug-In . SVG Version: 6.00 Build 0)  -->
<svg version="1.1" id="Layer_1" xmlns="http://www.w3.org/2000/svg" xmlns:xlink="http://www.w3.org/1999/xlink" x="0px" y="0px"
	 viewBox="0 0 24 24" style="enable-background:new 0 0 24 24;" xml:space="preserve">
<path d="M18.7,5.8c-1.3-0.6-2.6-1-4-1.2c-0.2,0.3-0.4,0.7-0.5,1c-1.5-0.2-3-0.2-4.4,0c-0.2-0.4-0.3-0.7-0.5-1
	c-1.4,0.2-2.7,0.7-4,1.2c-2.5,3.7-3.2,7.4-2.9,11l0,0c1.5,1.1,3.1,1.9,4.9,2.5c0.4-0.5,0.7-1.1,1.1-1.7c-0.6-0.2-1.1-0.5-1.7-0.8
	c0.1-0.1,0.3-0.2,0.4-0.3c3.1,1.5,6.7,1.5,9.8,0c0.1,0.1,0.3,0.2,0.4,0.3c-0.5,0.3-1.1,0.6-1.7,0.8c0.3,0.6,0.7,1.2,1.1,1.7
	c1.8-0.5,3.4-1.4,4.9-2.5l0,0C22,12.6,20.9,9,18.7,5.8z M8.8,14.6c-1,0-1.7-0.9-1.7-1.9s0.8-1.9,1.7-1.9s1.8,0.9,1.7,1.9
	S9.8,14.6,8.8,14.6z M15.2,14.6c-1,0-1.7-0.9-1.7-1.9s0.8-1.9,1.7-1.9s1.8,0.9,1.7,1.9S16.2,14.6,15.2,14.6z"/>
</svg>
