<?xml version="1.0" encoding="utf-8"?>
<!-- Generator: Adobe Illustrator 27.5.0, SVG Export Plug-In . SVG Version: 6.00 Build 0)  -->
<svg version="1.1" id="Layer_1" xmlns="http://www.w3.org/2000/svg" xmlns:xlink="http://www.w3.org/1999/xlink" x="0px" y="0px"
	 viewBox="0 0 24 24" style="enable-background:new 0 0 24 24;" xml:space="preserve">
<path d="M19.7,4.9c-1.5-0.7-3-1.1-4.6-1.4c-0.2,0.3-0.5,0.8-0.6,1.1c-1.7-0.2-3.4-0.2-5.1,0C9.2,4.3,9.1,3.9,8.9,3.6
	C7.3,3.8,5.8,4.4,4.3,4.9C1.4,9.2,0.6,13.4,1,17.6l0,0c1.7,1.3,3.6,2.2,5.6,2.9c0.5-0.6,0.8-1.3,1.3-2c-0.7-0.2-1.3-0.6-2-0.9
	c0.1-0.1,0.3-0.2,0.5-0.3c3.6,1.7,7.7,1.7,11.3,0c0.1,0.1,0.3,0.2,0.5,0.3c-0.6,0.3-1.3,0.7-2,0.9c0.3,0.7,0.8,1.4,1.3,2
	c2.1-0.6,3.9-1.6,5.6-2.9l0,0C23.5,12.8,22.2,8.6,19.7,4.9z M8.3,15c-1.1,0-2-1-2-2.2s0.9-2.2,2-2.2s2.1,1,2,2.2S9.5,15,8.3,15z
	 M15.7,15c-1.1,0-2-1-2-2.2s0.9-2.2,2-2.2s2.1,1,2,2.2S16.8,15,15.7,15z"/>
</svg>
