<?xml version="1.0" encoding="utf-8"?>
<!-- Generator: Adobe Illustrator 26.0.3, SVG Export Plug-In . SVG Version: 6.00 Build 0)  -->
<svg version="1.1" id="Layer_1" xmlns="http://www.w3.org/2000/svg" xmlns:xlink="http://www.w3.org/1999/xlink" x="0px" y="0px"
	 viewBox="0 0 24 24" style="enable-background:new 0 0 24 24;" xml:space="preserve">
<g>
	<path d="M21.8,18c0,1.1-0.9,2-1.9,2H4.2c-1.1,0-1.9-0.9-1.9-2V9.9c0-0.5,0.3-0.7,0.8-0.4l7.8,4.7c0.7,0.4,1.7,0.4,2.4,0L21,9.5
		c0.4-0.2,0.8-0.1,0.8,0.4V18L21.8,18z"/>
	<path d="M21.8,6c0-1.1-0.9-2-1.9-2H4.2C3.1,4,2.2,4.9,2.2,6v0.4c0,0.5,0.3,1.1,0.8,1.3l8.5,5.1c0.2,0.1,0.7,0.1,0.9,0L21,7.8
		c0.4-0.3,0.8-0.9,0.8-1.3C21.7,6.4,21.7,6,21.8,6z"/>
</g>
</svg>
