<?xml version="1.0" encoding="utf-8"?>
<!-- Generator: Adobe Illustrator 26.0.3, SVG Export Plug-In . SVG Version: 6.00 Build 0)  -->
<svg version="1.1" id="Layer_1" xmlns="http://www.w3.org/2000/svg" xmlns:xlink="http://www.w3.org/1999/xlink" x="0px" y="0px"
	 viewBox="0 0 24 24" style="enable-background:new 0 0 24 24;" xml:space="preserve">
<path d="M12,2.5c-5.4,0-9.8,4.4-9.8,9.7c0,4.3,2.8,8,6.7,9.2c0.5,0.1,0.7-0.2,0.7-0.5c0-0.2,0-1,0-1.8
	c-2.4,0.5-3.1-0.6-3.3-1.1c-0.1-0.3-0.6-1.1-1-1.4C5,16.4,4.5,16,5.3,16s1.3,0.7,1.5,1c0.9,1.5,2.3,1.1,2.8,0.8
	c0.1-0.6,0.3-1.1,0.6-1.3c-2.2-0.2-4.4-1.1-4.4-4.8c0-1.1,0.4-1.9,1-2.6C6.7,8.9,6.4,7.9,6.9,6.5c0,0,0.8-0.3,2.7,1
	c0.8-0.2,1.6-0.3,2.4-0.3c0.8,0,1.7,0.1,2.4,0.3c1.9-1.3,2.7-1,2.7-1c0.5,1.3,0.2,2.3,0.1,2.6c0.6,0.7,1,1.5,1,2.6
	c0,3.7-2.3,4.6-4.4,4.8c0.4,0.3,0.7,0.9,0.7,1.8c0,1.3,0,2.3,0,2.7c0,0.3,0.2,0.6,0.7,0.5c3.9-1.3,6.6-4.9,6.6-9.2
	C21.8,6.9,17.4,2.5,12,2.5z"/>
</svg>
