<?xml version="1.0" encoding="utf-8"?>
<!-- Generator: Adobe Illustrator 26.0.3, SVG Export Plug-In . SVG Version: 6.00 Build 0)  -->
<svg version="1.1" id="Layer_1" xmlns="http://www.w3.org/2000/svg" xmlns:xlink="http://www.w3.org/1999/xlink" x="0px" y="0px"
	 viewBox="0 0 24 24" style="enable-background:new 0 0 24 24;" xml:space="preserve">
<path id="a" d="M2.9,12.5c0,0.7-0.1,1-0.2,1.1c-0.2,0.1-0.4,0.2-0.6,0.2l0.1,0.4c0.3,0,0.7-0.1,0.9-0.3c0.3-0.3,0.4-0.8,0.4-1.2V10
	H2.9V12.5z"/>
<path id="b" d="M7,12.2c0,0.3,0,0.6,0,0.8H6.6v-0.5c-0.2,0.4-0.6,0.6-1,0.6c-0.5,0-1.1-0.3-1.1-1.3V10H5v1.7c0,0.6,0.2,1,0.7,1
	c0.4,0,0.8-0.3,0.8-0.8l0,0V10H7V12.2L7,12.2z"/>
<path id="c" d="M8.1,11c0-0.4,0-0.7,0-1h0.5v0.5c0.2-0.4,0.6-0.6,1.1-0.6c0.7,0,1.3,0.6,1.3,1.5c0,1.1-0.7,1.6-1.4,1.6
	c-0.4,0-0.7-0.2-0.9-0.5v1.7H8.1V11L8.1,11z M8.6,11.8c0,0.1,0,0.1,0,0.2c0,0.2,0.4,0.6,0.8,0.6c0.6,0,0.9-0.5,0.9-1.2
	c0-0.6-0.3-1.1-0.9-1.1c-0.5,0-0.8,0.4-0.8,0.9V11.8L8.6,11.8z"/>
<path id="d" d="M11.9,10l0.7,1.8l0.2,0.6c0,0,0.2-0.6,0.2-0.6l0.6-1.8h0.6l-0.8,2.2c-0.4,1-0.7,1.6-1,1.9c-0.2,0.2-0.4,0.3-0.7,0.4
	L11.6,14c0.2-0.1,0.3-0.1,0.5-0.3s0.4-0.4,0.5-0.6V13v-0.1L11.3,10H11.9L11.9,10z"/>
<path id="e" d="M15.7,9.1V10h0.8v0.4h-0.8V12c0,0.4,0.1,0.6,0.4,0.6c0.1,0,0.2,0,0.3,0V13c-0.2,0.1-0.3,0.1-0.5,0.1
	c-0.2,0-0.5-0.1-0.6-0.2c-0.2-0.2-0.2-0.5-0.2-0.8v-1.7h-0.5V10h0.5V9.3L15.7,9.1z"/>
<path id="f" d="M17.5,11.6c0,0.5,0.4,1,0.9,1c0.1,0,0.1,0,0.2,0c0.3,0,0.6,0,0.8-0.2l0.1,0.4c-0.3,0.1-0.7,0.2-1,0.2
	c-0.8,0.1-1.4-0.5-1.5-1.3c0-0.1,0-0.1,0-0.2c0-0.9,0.5-1.6,1.4-1.6c1,0,1.2,0.9,1.2,1.4c0,0.1,0,0.2,0,0.3L17.5,11.6L17.5,11.6z
	 M19.1,11.2c0.1-0.4-0.2-0.8-0.7-0.9h-0.1c-0.5,0-0.8,0.4-0.8,0.9H19.1z"/>
<path id="g" d="M20.4,10.9c0-0.4,0-0.7,0-0.9h0.5v0.6l0,0c0.1-0.4,0.4-0.6,0.8-0.7c0.1,0,0.1,0,0.2,0v0.5c-0.1,0-0.1,0-0.2,0
	c-0.4,0-0.7,0.3-0.7,0.7c0,0.1,0,0.2,0,0.3V13h-0.5L20.4,10.9L20.4,10.9L20.4,10.9z"/>
<path id="h" d="M20.2,1.7c0,0.8-0.5,1.4-1.3,1.5c-0.8,0-1.4-0.5-1.5-1.3c0-0.8,0.5-1.4,1.3-1.5l0,0C19.5,0.3,20.2,0.9,20.2,1.7
	L20.2,1.7L20.2,1.7z"/>
<path id="i" d="M12,17.9c-3.7,0-7-1.3-8.7-3.3c1.8,4.8,7.1,7.3,11.9,5.5c2.5-0.9,4.5-2.9,5.5-5.5C19,16.6,15.8,17.9,12,17.9z"/>
<path id="j" d="M12,5.1c3.7,0,7,1.3,8.7,3.3c-1.8-4.8-7.1-7.3-11.9-5.5C6.3,3.8,4.3,5.8,3.3,8.4C5,6.4,8.3,5.1,12,5.1z"/>
<path id="k" d="M6.9,21.8c0.1,1-0.7,1.8-1.7,1.9S3.4,23,3.3,22c0-1,0.7-1.8,1.7-1.9l0,0C6,20,6.8,20.8,6.9,21.8L6.9,21.8z"/>
<path id="l" d="M3.7,4.6c-0.6,0-1-0.4-1-1s0.4-1,1-1s1,0.4,1,1C4.7,4.1,4.3,4.6,3.7,4.6L3.7,4.6z"/>
</svg>
