<?xml version="1.0" encoding="utf-8"?>
<!-- Generator: Adobe Illustrator 26.0.3, SVG Export Plug-In . SVG Version: 6.00 Build 0)  -->
<svg version="1.1" id="Layer_1" xmlns="http://www.w3.org/2000/svg" xmlns:xlink="http://www.w3.org/1999/xlink" x="0px" y="0px"
	 viewBox="0 0 24 24" style="enable-background:new 0 0 24 24;" xml:space="preserve">
<path d="M11.3,20.5c0-1.4-0.8-2.1-2.4-2.1h-2c-1.2,0-2.2-0.3-3-0.9c-0.7-0.6-1.3-1.5-1.6-2.6l1.1-0.4c0.4,1.3,1.5,2.1,3.3,2.1h2.2
	c1.5,0,2.6,0.6,3.1,1.8c0.5-1.2,1.6-1.8,3.1-1.8h2c1.9,0,3-0.7,3.5-2.1l1.1,0.4c-0.3,1.2-0.9,2.1-1.6,2.6c-0.7,0.6-1.7,0.9-3,0.9
	h-2.1c-1.6,0-2.4,0.7-2.4,2.1"/>
<path d="M7.1,13.4c-0.5,0-1-0.1-1.5-0.3c-0.4-0.2-0.8-0.6-1.1-1c-0.3-0.5-0.4-1.1-0.4-1.6v0h1.3c0,0.7,0.2,1.1,0.4,1.4
	c0.3,0.3,0.8,0.5,1.2,0.5c0.3,0,0.6-0.1,0.9-0.2c0.2-0.2,0.4-0.4,0.5-0.7c0.1-0.3,0.2-0.6,0.2-1V4.5L7.4,4.4V3.5h3.7v0.8L10,4.5v5.9
	c0,0.5-0.1,1-0.3,1.5c-0.2,0.4-0.6,0.8-1,1C8.2,13.3,7.7,13.4,7.1,13.4z M12.1,13.2v-0.8l1.1-0.2V4.5l-1.1-0.2V3.5h4.2
	c1,0,1.8,0.2,2.4,0.7c0.6,0.4,0.9,1.1,0.9,2c0,0.4-0.1,0.8-0.4,1.2c-0.3,0.3-0.7,0.6-1.1,0.8c0.4,0.1,0.7,0.2,1,0.5
	c0.3,0.2,0.5,0.5,0.7,0.9c0.2,0.3,0.2,0.7,0.2,1.1c0,0.9-0.3,1.6-0.9,2s-1.4,0.7-2.4,0.7L12.1,13.2z M14.5,12.2h2.2
	c0.5,0,1-0.1,1.4-0.4c0.3-0.3,0.5-0.8,0.5-1.3c0-0.3-0.1-0.7-0.2-1c-0.1-0.3-0.3-0.5-0.6-0.6c-0.3-0.2-0.6-0.2-1-0.2h-2.4L14.5,12.2
	z M14.5,7.6h2.1c0.4,0,0.8-0.1,1.1-0.4c0.3-0.3,0.5-0.7,0.4-1.1c0-0.4-0.2-0.9-0.5-1.2c-0.4-0.3-0.9-0.4-1.4-0.4h-1.8L14.5,7.6z"/>
</svg>
