<?xml version="1.0" encoding="utf-8"?>
<!-- Generator: Adobe Illustrator 26.0.3, SVG Export Plug-In . SVG Version: 6.00 Build 0)  -->
<svg version="1.1" id="Layer_1" xmlns="http://www.w3.org/2000/svg" xmlns:xlink="http://www.w3.org/1999/xlink" x="0px" y="0px"
	 viewBox="0 0 24 24" style="enable-background:new 0 0 24 24;" xml:space="preserve">
<path id="h" d="M20.2,1.7c0,0.8-0.5,1.4-1.3,1.5c-0.8,0-1.4-0.5-1.5-1.3c0-0.8,0.5-1.4,1.3-1.5c0,0,0,0,0,0
	C19.5,0.3,20.2,0.9,20.2,1.7C20.2,1.7,20.2,1.7,20.2,1.7L20.2,1.7z"/>
<path id="i" d="M12,17.9c-3.7,0-7-1.3-8.7-3.3c1.8,4.8,7.1,7.3,11.9,5.5c2.5-0.9,4.5-2.9,5.5-5.5C19,16.6,15.8,17.9,12,17.9z"/>
<path id="j" d="M12,5.1c3.7,0,7,1.3,8.7,3.3c-1.8-4.8-7.1-7.3-11.9-5.5C6.3,3.8,4.3,5.8,3.3,8.4C5,6.4,8.3,5.1,12,5.1z"/>
<path id="k" d="M6.9,21.8c0.1,1-0.7,1.8-1.7,1.9c-1,0.1-1.8-0.7-1.9-1.7C3.3,21,4,20.2,5,20.1c0,0,0,0,0,0C6,20,6.8,20.8,6.9,21.8
	C6.9,21.8,6.9,21.8,6.9,21.8z"/>
<path id="l" d="M3.7,4.6c-0.6,0-1-0.4-1-1s0.4-1,1-1c0.6,0,1,0.4,1,1C4.7,4.1,4.3,4.6,3.7,4.6L3.7,4.6z"/>
</svg>
