<?xml version="1.0" encoding="utf-8"?>
<!-- Generator: Adobe Illustrator 26.0.3, SVG Export Plug-In . SVG Version: 6.00 Build 0)  -->
<svg version="1.1" id="Layer_1" xmlns="http://www.w3.org/2000/svg" xmlns:xlink="http://www.w3.org/1999/xlink" x="0px" y="0px"
	 viewBox="0 0 24 24" style="enable-background:new 0 0 24 24;" xml:space="preserve">
<path d="M6.8,8.5H2.9c-0.2,0-0.3,0.2-0.3,0.3v12.6c0,0.2,0.2,0.3,0.3,0.3h3.9c0.2,0,0.3-0.2,0.3-0.3V8.8C7.1,8.6,7,8.5,6.8,8.5z
	 M4.8,2.2c-1.4,0-2.6,1.2-2.6,2.6s1.2,2.6,2.6,2.6s2.6-1.2,2.6-2.6S6.2,2.2,4.8,2.2z M16.7,8.2c-1.6,0-2.7,0.7-3.4,1.4V8.8
	c0-0.2-0.2-0.3-0.3-0.3H9.2C9,8.5,8.9,8.7,8.9,8.8v12.6c0,0.2,0.2,0.3,0.3,0.3h3.9c0.2,0,0.3-0.2,0.3-0.3v-6.3c0-2.1,0.6-2.9,2-2.9
	c1.6,0,1.7,1.3,1.7,3v6.1c0,0.2,0.2,0.3,0.3,0.3h3.9c0.2,0,0.3-0.2,0.3-0.3v-6.9C21.7,11.3,21.1,8.2,16.7,8.2z"/>
</svg>
