<?xml version="1.0" encoding="utf-8"?>
<!-- Generator: Adobe Illustrator 26.0.3, SVG Export Plug-In . SVG Version: 6.00 Build 0)  -->
<svg version="1.1" id="Layer_1" xmlns="http://www.w3.org/2000/svg" xmlns:xlink="http://www.w3.org/1999/xlink" x="0px" y="0px"
	 viewBox="0 0 24 24" style="enable-background:new 0 0 24 24;" xml:space="preserve">
<path d="M21.1,8.7c0-4.2-2.8-5.5-2.8-5.5c-1.4-0.6-3.8-0.9-6.3-0.9H12c-2.5,0-4.9,0.3-6.3,0.9c0,0-2.8,1.2-2.8,5.5c0,1,0,2.1,0,3.4
	c0.1,4.1,0.8,8.2,4.6,9.2c1.8,0.5,3.3,0.6,4.5,0.5c2.2-0.1,3.5-0.8,3.5-0.8l-0.1-1.6c0,0-1.6,0.5-3.4,0.4c-1.8-0.1-3.6-0.2-3.9-2.3
	c0-0.2,0-0.4,0-0.6c0,0,1.7,0.4,3.9,0.5c1.3,0.1,2.6-0.1,3.9-0.2c2.4-0.3,4.6-1.8,4.8-3.2C21.1,11.8,21.1,8.7,21.1,8.7z M17.8,14.1
	h-2v-5c0-1-0.4-1.6-1.3-1.6c-1,0-1.5,0.6-1.5,1.9v2.7h-2V9.4c0-1.2-0.5-1.9-1.5-1.9c-0.9,0-1.3,0.5-1.3,1.6v5h-2V9
	c0-1,0.3-1.9,0.8-2.5c0.6-0.6,1.3-0.9,2.2-0.9c1,0,1.8,0.4,2.3,1.2L12,7.6l0.5-0.8C13,6,13.8,5.6,14.9,5.6c0.9,0,1.6,0.3,2.2,0.9
	c0.5,0.6,0.8,1.4,0.8,2.5V14.1z"/>
</svg>
