<?xml version="1.0" encoding="utf-8"?>
<!-- Generator: Adobe Illustrator 26.0.3, SVG Export Plug-In . SVG Version: 6.00 Build 0)  -->
<svg version="1.1" id="Layer_1" xmlns="http://www.w3.org/2000/svg" xmlns:xlink="http://www.w3.org/1999/xlink" x="0px" y="0px"
	 viewBox="0 0 24 24" style="enable-background:new 0 0 24 24;" xml:space="preserve">
<path d="M5.7,13.4v-0.9l1.1-0.2V4.5L5.7,4.4V3.5h2.9l3.2,7.6h0L15,3.5h3v0.9l-1.1,0.2v7.8l1.1,0.2v0.9h-3.6v-0.9l1.2-0.2v-7h0
	l-3.2,7.7h-0.9L8.1,5.3h0l0,4.1v2.9l1.2,0.2v0.9L5.7,13.4L5.7,13.4z M11.3,20.5c0-1.4-0.8-2.1-2.4-2.1h-2c-1.2,0-2.2-0.3-3-0.9
	c-0.7-0.6-1.3-1.5-1.6-2.6l1.1-0.4c0.4,1.3,1.5,2.1,3.3,2.1h2.2c1.5,0,2.6,0.6,3.1,1.8c0.5-1.2,1.6-1.8,3.1-1.8h2
	c1.9,0,3-0.7,3.5-2.1l1.1,0.4c-0.3,1.2-0.9,2.1-1.6,2.6c-0.7,0.6-1.7,0.9-3,0.9h-2.1c-1.6,0-2.4,0.7-2.4,2.1"/>
</svg>
