<?xml version="1.0" encoding="utf-8"?>
<!-- Generator: Adobe Illustrator 26.0.3, SVG Export Plug-In . SVG Version: 6.00 Build 0)  -->
<svg version="1.1" id="Layer_1" xmlns="http://www.w3.org/2000/svg" xmlns:xlink="http://www.w3.org/1999/xlink" x="0px" y="0px"
	 viewBox="0 0 24 24" style="enable-background:new 0 0 24 24;" xml:space="preserve">
<path d="M17.1,12.6h-2V7.5c0-1.7-1.4-3.1-3-3.1c0,0,0,0,0,0c-0.8,0-1.6,0.3-2.2,0.9C9.3,5.8,9,6.6,9,7.5v0.7h-2V7.5
	c0-1.4,0.5-2.7,1.5-3.7c1-1,2.2-1.5,3.6-1.5c0,0,0,0,0,0c1.4,0,2.6,0.5,3.6,1.5s1.5,2.3,1.5,3.7V12.6z"/>
<path d="M12,21.8c-0.8,0-1.6-0.2-2.3-0.5c-0.7-0.3-1.4-0.8-1.9-1.3c-0.6-0.6-1-1.2-1.3-2C6.2,17.2,6,16.4,6,15.6s0.2-1.6,0.5-2.4
	c0.3-0.7,0.7-1.4,1.3-2s1.2-1,1.9-1.3c0.7-0.3,1.5-0.5,2.3-0.5c0.8,0,1.6,0.2,2.3,0.5c0.7,0.3,1.4,0.8,1.9,1.3c0.6,0.6,1,1.2,1.3,2
	c0.3,0.8,0.5,1.6,0.5,2.4s-0.2,1.6-0.5,2.4c-0.3,0.7-0.7,1.4-1.3,2c-0.6,0.6-1.2,1-1.9,1.3C13.6,21.6,12.8,21.8,12,21.8z M12,11.5
	c-2.2,0-4,1.8-4,4.1s1.8,4.1,4,4.1s4-1.8,4-4.1S14.2,11.5,12,11.5z"/>
<ellipse cx="12" cy="15.6" rx="1.7" ry="1.7"/>
</svg>
