<?xml version="1.0" encoding="utf-8"?>
<!-- Generator: Adobe Illustrator 26.0.3, SVG Export Plug-In . SVG Version: 6.00 Build 0)  -->
<svg version="1.1" id="Layer_1" xmlns="http://www.w3.org/2000/svg" xmlns:xlink="http://www.w3.org/1999/xlink" x="0px" y="0px"
	 viewBox="0 0 24 24" style="enable-background:new 0 0 24 24;" xml:space="preserve">
<path d="M10,4.2L8.3,6.8L6.6,4.2H10z"/>
<path d="M17.1,4.2l-1.7,2.6l-1.7-2.6H17.1z"/>
<path d="M6.6,19.8l1.7-2.6l1.7,2.6H6.6z"/>
<path d="M13.7,19.8l1.7-2.6l1.7,2.6H13.7z"/>
<path d="M20.8,12.5c0.6-0.1,1.1-0.4,1.4-0.8c0.3-0.4,0.5-0.9,0.5-1.5c0-0.5-0.1-0.9-0.3-1.2c-0.2-0.3-0.4-0.6-0.7-0.8
	c-0.3-0.2-0.6-0.3-1-0.4c-0.4-0.1-0.8-0.1-1.2-0.1h-3.3v2.6c0-0.1-0.1-0.2-0.1-0.2c-0.2-0.6-0.6-1-1-1.4c-0.4-0.4-0.9-0.7-1.5-0.9
	c-0.6-0.2-1.2-0.3-1.9-0.3c-0.7,0-1.3,0.1-1.9,0.3C9.3,7.9,8.8,8.2,8.4,8.6C8.1,9,7.8,9.4,7.5,9.9c0-0.3-0.1-0.6-0.2-0.9
	C7.1,8.6,6.9,8.4,6.6,8.2C6.3,8,6,7.9,5.6,7.8S4.8,7.6,4.3,7.6H1v8.5h1.9v-3.4h0.9l1.8,3.4h2.3l-2.2-3.6c0.6-0.1,1.1-0.4,1.4-0.8
	c0,0,0,0,0-0.1c0,0.1,0,0.1,0,0.2c0,0.7,0.1,1.3,0.3,1.8c0.2,0.6,0.6,1,1,1.4c0.4,0.4,0.9,0.7,1.5,0.9c0.6,0.2,1.2,0.3,1.9,0.3
	c0.7,0,1.3-0.1,1.9-0.3c0.6-0.2,1.1-0.5,1.5-0.9c0.4-0.4,0.7-0.9,1-1.4c0-0.1,0.1-0.2,0.1-0.2v2.6H18v-3.4h0.9l1.8,3.4H23L20.8,12.5
	z M5.4,10.7C5.3,10.9,5.2,11,5.1,11c-0.2,0.1-0.3,0.1-0.5,0.1c-0.2,0-0.4,0-0.5,0H2.9V9.2h1.2c0.2,0,0.3,0,0.5,0
	c0.2,0,0.3,0.1,0.5,0.1c0.1,0.1,0.3,0.2,0.3,0.3c0.1,0.1,0.1,0.3,0.1,0.5C5.6,10.4,5.5,10.6,5.4,10.7z M14.2,13
	c-0.1,0.3-0.3,0.6-0.5,0.9c-0.2,0.2-0.5,0.4-0.8,0.6c-0.3,0.1-0.7,0.2-1.1,0.2c-0.4,0-0.8-0.1-1.1-0.2c-0.3-0.1-0.6-0.3-0.8-0.6
	c-0.2-0.2-0.4-0.5-0.5-0.9c-0.1-0.3-0.2-0.7-0.2-1.1c0-0.4,0.1-0.8,0.2-1.1s0.3-0.6,0.5-0.9c0.2-0.2,0.5-0.4,0.8-0.6
	c0.3-0.1,0.7-0.2,1.1-0.2c0.4,0,0.8,0.1,1.1,0.2c0.3,0.1,0.6,0.3,0.8,0.6c0.2,0.2,0.4,0.5,0.5,0.9c0.1,0.3,0.2,0.7,0.2,1.1
	C14.4,12.3,14.4,12.6,14.2,13z M20.6,10.7c-0.1,0.1-0.2,0.2-0.4,0.3c-0.2,0.1-0.3,0.1-0.5,0.1c-0.2,0-0.4,0-0.5,0H18V9.2h1.2
	c0.2,0,0.3,0,0.5,0c0.2,0,0.3,0.1,0.5,0.1c0.1,0.1,0.3,0.2,0.3,0.3c0.1,0.1,0.1,0.3,0.1,0.5C20.7,10.4,20.7,10.6,20.6,10.7z"/>
</svg>
