<?xml version="1.0" encoding="utf-8"?>
<!-- Generator: Adobe Illustrator 26.0.3, SVG Export Plug-In . SVG Version: 6.00 Build 0)  -->
<svg version="1.1" id="Layer_1" xmlns="http://www.w3.org/2000/svg" xmlns:xlink="http://www.w3.org/1999/xlink" x="0px" y="0px"
	 viewBox="0 0 24 24" style="enable-background:new 0 0 24 24;" xml:space="preserve">
<path d="M6.3,14.6c0,1.1-0.9,2-2,2s-2-0.9-2-2s0.9-2,2-2h2V14.6L6.3,14.6z M7.4,14.6c0-1.1,0.9-2,2-2s2,0.9,2,2v5.1
	c0,1.1-0.9,2-2,2s-2-0.9-2-2L7.4,14.6L7.4,14.6z M9.4,6.3c-1.1,0-2-0.9-2-2s0.9-2,2-2s2,0.9,2,2v2H9.4z M9.4,7.4c1.1,0,2,0.9,2,2
	s-0.9,2-2,2H4.3c-1.1,0-2-0.9-2-2s0.9-2,2-2L9.4,7.4L9.4,7.4z M17.7,9.4c0-1.1,0.9-2,2-2s2,0.9,2,2s-0.9,2-2,2h-2V9.4z M16.6,9.4
	c0,1.1-0.9,2-2,2s-2-0.9-2-2V4.3c0-1.1,0.9-2,2-2s2,0.9,2,2V9.4L16.6,9.4z M14.6,17.7c1.1,0,2,0.9,2,2s-0.9,2-2,2s-2-0.9-2-2v-2
	H14.6z M14.6,16.6c-1.1,0-2-0.9-2-2s0.9-2,2-2h5.1c1.1,0,2,0.9,2,2s-0.9,2-2,2H14.6L14.6,16.6z"/>
</svg>
