<?xml version="1.0" encoding="utf-8"?>
<!-- Generator: Adobe Illustrator 26.0.3, SVG Export Plug-In . SVG Version: 6.00 Build 0)  -->
<svg version="1.1" id="Layer_1" xmlns="http://www.w3.org/2000/svg" xmlns:xlink="http://www.w3.org/1999/xlink" x="0px" y="0px"
	 viewBox="0 0 24 24" style="enable-background:new 0 0 24 24;" xml:space="preserve">
<path d="M22.7,5.4C21.9,5.7,21,6,20.2,6.1c0.9-0.5,1.6-1.4,1.9-2.4c-0.9,0.5-1.8,0.9-2.8,1.1c-1.7-1.8-4.4-1.9-6.2-0.2
	c-1.1,1.1-1.6,2.7-1.3,4.2C8.3,8.5,5,6.9,2.8,4.1C2.4,4.8,2.2,5.6,2.2,6.3c0,1.5,0.7,2.8,1.9,3.6c-0.7,0-1.4-0.2-2-0.5v0.1
	c0,2.1,1.5,3.9,3.5,4.3c-0.6,0.2-1.3,0.2-2,0.1c0.6,1.8,2.2,3,4.1,3c-1.6,1.2-3.5,1.9-5.4,1.9c-0.3,0-0.7,0-1-0.1c2,1.3,4.3,2,6.7,2
	c8.1,0,12.5-6.7,12.5-12.5c0-0.2,0-0.4,0-0.6C21.3,7,22.1,6.3,22.7,5.4"/>
</svg>
