<?xml version="1.0" encoding="utf-8"?>
<!-- Generator: Adobe Illustrator 27.5.0, SVG Export Plug-In . SVG Version: 6.00 Build 0)  -->
<svg version="1.1" id="Layer_1" xmlns="http://www.w3.org/2000/svg" xmlns:xlink="http://www.w3.org/1999/xlink" x="0px" y="0px"
	 viewBox="0 0 24 24" style="enable-background:new 0 0 24 24;" xml:space="preserve">
<path d="M11.9,21.6c-5.3,0-9.7-4.3-9.7-9.7c0-5.3,4.3-9.7,9.7-9.7H12c2.6,0,5,1,6.8,2.8c1.8,1.8,2.8,4.2,2.8,6.8c0,2.6-1,5-2.8,6.9
	C17,20.6,14.6,21.6,11.9,21.6C12,21.6,12,21.6,11.9,21.6z M11.9,3.4c-4.7,0-8.5,3.9-8.4,8.5c0,4.7,3.8,8.4,8.5,8.4c0,0,0,0,0,0
	c2.3,0,4.4-0.9,6-2.5c1.6-1.6,2.5-3.7,2.5-6c0-2.3-0.9-4.4-2.5-6C16.4,4.3,14.2,3.4,11.9,3.4L11.9,3.4z M11,21.2
	c-0.5-0.4-1-0.9-1.4-1.4c-0.8-1-1.5-2.1-2-3.2c-0.8,0.3-1.7,0.8-2.4,1.3l-0.5-0.7c0.8-0.6,1.7-1.1,2.6-1.4c-0.4-1.1-0.6-2.2-0.6-3.4
	H2.9v-0.8h3.8c0-0.2,0-0.4,0-0.5C6.8,10,7,9,7.3,8.1C6.4,7.7,5.5,7.2,4.7,6.6L5.2,6c0.8,0.6,1.6,1,2.5,1.3C8.3,5.6,9.5,4,11,2.7
	l0.5,0.6C10.1,4.5,9.1,6,8.4,7.6c1,0.3,2.1,0.5,3.1,0.5V2.8h0.8v5.3c1.1,0,2.1-0.2,3.1-0.5c-0.4-1-1-2-1.8-2.9
	c-0.4-0.5-0.9-0.9-1.3-1.3l0.5-0.6c0.5,0.4,1,0.9,1.4,1.4c0.8,1,1.5,2,1.9,3.2C17.1,7,18,6.5,18.7,6l0.5,0.7
	c-0.8,0.6-1.7,1.1-2.7,1.4c0.4,1.1,0.6,2.2,0.6,3.4H21v0.8h-3.8c0,0.2,0,0.4,0,0.6c-0.1,0.9-0.3,1.9-0.6,2.8
	c0.9,0.4,1.8,0.8,2.6,1.4l-0.5,0.7c-0.8-0.5-1.6-1-2.4-1.3c-0.7,1.8-1.9,3.4-3.4,4.7l-0.5-0.6c1.4-1.2,2.5-2.7,3.1-4.3
	c-1-0.3-2.1-0.5-3.2-0.6V21h-0.8v-5.3c-1.1,0-2.1,0.2-3.2,0.6c0.4,1.1,1,2.1,1.8,3c0.4,0.5,0.9,0.9,1.3,1.3L11,21.2z M7.5,12.3
	c0,1.1,0.2,2.1,0.5,3.1c1.1-0.4,2.3-0.6,3.4-0.6v-2.5H7.5z M12.4,14.8c1.2,0,2.3,0.2,3.4,0.6c0.3-0.8,0.4-1.7,0.5-2.5
	c0-0.2,0-0.4,0-0.6h-4V14.8z M12.4,11.5h4c0-1.1-0.2-2.1-0.6-3.1c-1.1,0.4-2.3,0.6-3.4,0.6V11.5z M7.5,11.5h4V9
	c-1.2,0-2.3-0.2-3.4-0.6C7.8,9.2,7.6,10.1,7.6,11C7.6,11.2,7.6,11.3,7.5,11.5z"/>
</svg>
