<?xml version="1.0" encoding="utf-8"?>
<!-- Generator: Adobe Illustrator 27.5.0, SVG Export Plug-In . SVG Version: 6.00 Build 0)  -->
<svg version="1.1" id="Layer_1" xmlns="http://www.w3.org/2000/svg" xmlns:xlink="http://www.w3.org/1999/xlink" x="0px" y="0px"
	 viewBox="0 0 24 24" style="enable-background:new 0 0 24 24;" xml:space="preserve">
<path d="M21.3,7.2c-0.2-0.8-0.9-1.5-1.7-1.7c-1.5-0.4-7.6-0.4-7.6-0.4s-6.1,0-7.6,0.4C3.5,5.7,2.8,6.4,2.6,7.2
	c-0.4,1.5-0.4,4.7-0.4,4.7s0,3.2,0.4,4.7c0.2,0.8,0.9,1.5,1.7,1.7c1.5,0.4,7.6,0.4,7.6,0.4s6.1,0,7.6-0.4c0.8-0.2,1.5-0.9,1.7-1.7
	c0.4-1.5,0.4-4.7,0.4-4.7S21.7,8.7,21.3,7.2z M15.1,11.9L10,14.8V9L15.1,11.9z"/>
</svg>
