<?xml version="1.0" encoding="utf-8"?>
<!-- Generator: Adobe Illustrator 26.0.3, SVG Export Plug-In . SVG Version: 6.00 Build 0)  -->
<svg version="1.1" id="Layer_1" xmlns="http://www.w3.org/2000/svg" xmlns:xlink="http://www.w3.org/1999/xlink" x="0px" y="0px"
	 viewBox="0 0 24 24" style="enable-background:new 0 0 24 24;" xml:space="preserve">
<path id="h" d="M19.9,2.6c0,0.8-0.5,1.3-1.2,1.4c-0.8,0-1.3-0.5-1.4-1.2c0-0.8,0.5-1.3,1.2-1.4l0,0C19.2,1.2,19.9,1.8,19.9,2.6
	L19.9,2.6L19.9,2.6z"/>
<path id="i" d="M12,18.1c-3.6,0-6.7-1.2-8.4-3.2c1.7,4.6,6.8,7,11.4,5.3c2.4-0.9,4.3-2.8,5.3-5.3C18.7,16.9,15.6,18.1,12,18.1z"/>
<path id="j" d="M12,5.8c3.6,0,6.7,1.2,8.4,3.2c-1.7-4.6-6.8-7-11.4-5.3C6.5,4.6,4.6,6.5,3.6,9C5.3,7.1,8.4,5.8,12,5.8z"/>
<path id="k" d="M7.1,21.9c0.1,1-0.7,1.7-1.6,1.8c-1,0.1-1.7-0.7-1.8-1.6c0-1,0.7-1.7,1.6-1.8l0,0C6.2,20.1,7,20.9,7.1,21.9L7.1,21.9
	z"/>
<path id="l" d="M4,5.4c-0.6,0-1-0.4-1-1s0.4-1,1-1s1,0.4,1,1C5,4.9,4.6,5.4,4,5.4L4,5.4z"/>
</svg>
